<svg width="16" height="20" viewBox="0 0 16 20" fill="none" xmlns="http://www.w3.org/2000/svg">
<path d="M5.99995 12.65V7.34999L11 9.99999L5.99995 12.65ZM13.77 8.31999C13 7.99999 12.57 7.81999 12.57 7.81999L14 7.05999C15.84 6.09999 16.53 3.82999 15.56 1.99999C14.59 0.169991 12.32 -0.530009 10.49 0.439991L1.99995 4.93999C0.709953 5.61999 -0.070047 6.97999 -4.69666e-05 8.42999C0.069953 9.84999 0.929953 11.1 2.21995 11.68C2.24995 11.69 3.41995 12.18 3.41995 12.18L1.99995 12.93C0.169953 13.9 -0.530047 16.17 0.439953 18C1.40995 19.83 3.67995 20.53 5.50995 19.56L14.01 15.06C15.3 14.38 16.07 13.02 16 11.57C15.93 10.15 15.06 8.88999 13.77 8.31999ZM13.54 14.18L5.03995 18.68C3.69995 19.39 2.02995 18.88 1.31995 17.54C0.609953 16.2 1.11995 14.53 2.45995 13.82L4.49995 12.74V11.53L3.80995 11.25L2.69995 10.79C1.70995 10.38 1.04995 9.43999 0.999953 8.37999C0.949953 7.31999 1.51995 6.31999 2.45995 5.81999L10.96 1.31999C12.3 0.609991 13.97 1.11999 14.68 2.45999C15.39 3.79999 14.88 5.46999 13.54 6.17999L11.5 7.25999V8.46999L13.3 9.20999C14.29 9.61999 14.95 10.56 15 11.62C15.05 12.68 14.48 13.68 13.54 14.18Z" fill="white"/>
</svg>
